<svg version="1.1" id="Layer_1" xmlns="http://www.w3.org/2000/svg" xmlns:xlink="http://www.w3.org/1999/xlink" x="0px" y="0px"
	 width="100%" viewBox="0 0 512 512" enable-background="new 0 0 512 512" xml:space="preserve">
<path fill="#000000" opacity="1.000000" stroke="none" 
	d="
M318.000000,1.000002 
	C382.986267,1.000000 447.972534,1.000000 512.979370,1.000000 
	C512.979370,171.616898 512.979370,342.233795 512.979370,512.925354 
	C342.419159,512.925354 171.838257,512.925354 1.128677,512.925354 
	C1.128677,342.455231 1.128677,171.910339 1.128677,1.000000 
	C103.023033,1.000000 205.046509,1.000000 307.864319,1.297686 
	C308.236938,2.105225 307.473297,2.599756 307.449646,3.127447 
	C307.307220,6.306001 306.341736,10.016930 307.650635,12.492958 
	C308.536621,14.168911 312.798065,14.930861 315.376099,14.627186 
	C318.793854,14.224601 320.404968,11.179678 319.931580,7.709482 
	C319.620300,5.427616 318.666229,3.233443 318.000000,1.000002 
M347.924133,424.677704 
	C336.366150,421.753723 324.808136,418.829742 313.449005,415.956055 
	C302.092590,440.479889 283.912567,454.886475 256.928619,454.864807 
	C229.780975,454.843048 211.549057,440.221405 200.548843,415.979767 
	C186.714371,419.445007 173.141617,422.718475 159.642670,426.272308 
	C151.277725,428.474548 146.611938,434.570557 145.945129,443.269409 
	C145.066772,454.727936 144.106812,466.180267 143.260483,477.641113 
	C142.651794,485.883545 142.171539,494.135468 141.617828,502.631348 
	C153.983109,502.631348 165.671921,502.631348 177.708435,502.631348 
	C177.708435,501.127960 177.708267,499.982208 177.708450,498.836487 
	C177.710510,485.673126 177.734192,472.509674 177.700119,459.346405 
	C177.691223,455.909424 178.811600,453.190826 182.592285,453.163239 
	C186.350540,453.135773 187.637497,455.880524 187.684082,459.262909 
	C187.736832,463.094604 187.702911,466.927490 187.703293,470.759857 
	C187.704361,481.364624 187.703674,491.969391 187.703674,502.689819 
	C234.175674,502.689819 280.067383,502.689819 326.296295,502.689819 
	C326.296295,500.569305 326.296295,498.758850 326.296295,496.948364 
	C326.296356,485.117981 326.303802,473.287628 326.292145,461.457245 
	C326.288452,457.688477 326.136169,453.380280 331.212097,453.224518 
	C336.435120,453.064240 336.316589,457.359589 336.298706,461.154083 
	C336.269623,467.319092 336.290985,473.484314 336.291016,479.649445 
	C336.291046,487.271393 336.291016,494.893372 336.291016,502.608459 
	C348.537872,502.608459 360.242584,502.608459 372.455475,502.608459 
	C371.486969,489.084991 370.564270,475.983673 369.603119,462.885132 
	C369.213135,457.570251 368.797119,452.256073 368.292664,446.951080 
	C366.869080,431.980103 363.690491,428.423584 347.924133,424.677704 
M78.792122,247.678757 
	C125.958450,249.286102 161.165573,209.101974 153.095001,162.872147 
	C146.408463,124.570412 107.713371,97.904984 69.864548,105.516693 
	C29.524420,113.629433 4.044146,151.918228 12.524639,190.950073 
	C18.834692,219.992371 43.999500,245.200989 78.792122,247.678757 
M264.504852,261.045380 
	C247.580734,278.371948 226.554108,282.293335 203.300156,279.359375 
	C203.300156,295.497070 202.526367,311.338409 203.475189,327.075867 
	C205.033875,352.928833 225.513123,373.886169 249.978180,376.045013 
	C277.475128,378.471436 301.030243,362.491394 307.269104,336.279022 
	C309.087219,328.640289 308.841888,320.443115 308.997314,312.491211 
	C309.253815,299.367340 309.066956,286.234772 309.066956,272.979279 
	C293.607269,271.755005 279.457001,268.041656 267.235779,257.719116 
	C266.441589,258.717255 265.716370,259.628723 264.504852,261.045380 
M193.057831,68.599556 
	C186.793045,81.293297 184.315506,94.610519 185.779526,108.767532 
	C189.979324,149.379196 228.928329,178.940948 268.942902,171.719864 
	C310.424072,164.234146 336.914307,123.631630 326.506317,83.490562 
	C319.190796,55.276627 295.248291,33.567776 267.563293,30.046564 
	C236.239334,26.062519 208.824463,40.063377 193.057831,68.599556 
M490.672729,217.148651 
	C498.156250,205.966782 502.438141,193.656693 502.916748,180.219681 
	C504.507263,135.566757 467.624847,101.366798 422.904236,105.867386 
	C383.644562,109.818398 354.072021,148.175873 360.278137,187.097473 
	C364.995209,216.680634 386.454285,240.170731 414.822571,246.804321 
	C443.618530,253.537918 472.394012,242.438232 490.672729,217.148651 
M200.536942,219.044250 
	C184.625824,234.858917 183.010254,254.609772 184.581406,276.262177 
	C188.281097,274.958221 192.234070,274.726624 194.168121,272.631378 
	C197.733719,268.768585 201.450119,268.825867 205.932404,269.418823 
	C216.761322,270.851349 227.538071,270.831360 237.953827,266.861237 
	C246.861465,263.465973 254.216019,257.919922 260.540680,250.814758 
	C264.438049,246.436462 268.276642,245.566452 271.903625,248.673660 
	C283.347504,258.477539 296.774567,262.223694 311.462921,263.249969 
	C313.953033,263.423950 316.529602,266.355225 318.509033,268.521729 
	C319.973022,270.124115 320.009521,273.352600 321.627502,274.410339 
	C323.617310,275.711151 326.590149,275.508301 329.386719,275.999023 
	C329.386719,263.496490 330.569489,251.405869 329.125305,239.637619 
	C326.599670,219.057175 307.305939,209.123138 288.593628,217.819885 
	C284.514740,219.715576 281.729095,219.093048 279.237488,215.381943 
	C274.171234,207.836136 266.863678,203.776596 257.920807,203.136154 
	C251.619232,202.684875 245.258820,202.907852 238.928680,203.032394 
	C224.324921,203.319702 211.646179,208.420166 200.536942,219.044250 
M289.783997,406.266693 
	C283.924225,399.554138 277.629547,393.054474 279.027374,382.352905 
	C264.158081,387.464020 249.826950,387.651855 236.174698,383.356750 
	C234.780472,387.926422 234.092819,392.311127 232.127945,396.018951 
	C230.177231,399.700012 226.941116,402.699860 224.228271,406.048370 
	C239.868393,428.598114 271.387054,429.069946 289.783997,406.266693 
M240.412277,430.330658 
	C229.518906,426.549164 221.109940,419.518158 214.548950,410.077026 
	C212.984619,410.984436 211.726578,411.714203 210.522369,412.412720 
	C216.962479,431.873260 236.718781,445.361633 258.026031,445.064758 
	C278.199524,444.783661 297.898468,430.667084 303.422974,412.210297 
	C302.102142,411.558197 300.717590,410.874664 299.418304,410.233215 
	C283.354706,430.747986 264.586029,437.242401 240.412277,430.330658 
M333.800171,292.871063 
	C330.230835,287.968994 325.678284,284.855530 319.384857,284.673645 
	C319.384857,297.444702 319.384857,309.948334 319.384857,322.493042 
	C334.388672,320.365662 341.066223,306.993835 333.800171,292.871063 
M175.237244,304.333679 
	C177.152710,315.758942 183.396896,322.054260 192.922729,322.073914 
	C192.922729,309.658783 192.922729,297.244781 192.922729,284.819092 
	C182.734497,285.449097 176.581543,292.014740 175.237244,304.333679 
M134.000168,365.434235 
	C133.736465,369.058868 135.137100,370.811005 139.048157,371.087433 
	C145.183228,371.520996 144.687851,367.061188 145.274673,363.222748 
	C148.932327,362.673096 153.129456,363.360504 153.107010,357.468018 
	C153.084610,351.588104 148.861450,352.324707 144.891434,351.739227 
	C145.824127,347.001251 143.817276,343.324707 139.294983,343.282990 
	C134.411255,343.237885 133.479782,347.592804 133.825348,351.799042 
	C132.971252,351.891693 132.471573,352.051392 132.007629,351.979767 
	C127.830826,351.334869 125.347954,353.851074 125.238617,357.291260 
	C125.131836,360.651001 127.228729,363.464447 131.571884,363.084229 
	C132.329529,363.017883 133.183258,364.048798 134.000168,365.434235 
M374.507904,32.080399 
	C370.733276,27.914932 366.958618,23.749464 363.682434,20.134056 
	C361.725555,22.869448 359.753265,26.725647 356.767731,29.485970 
	C353.866669,32.168213 349.926514,33.726658 345.834625,36.136688 
	C355.194794,38.486515 361.354187,43.857010 364.061035,53.407299 
	C366.317688,43.425732 373.249573,38.646698 382.748993,35.756802 
	C379.537109,34.425896 377.303497,33.500351 374.507904,32.080399 
M377.072510,277.691162 
	C374.009277,281.435974 370.946045,285.180786 368.448700,288.233826 
	C371.418060,291.182861 375.008331,294.748596 378.068451,297.787750 
	C381.447998,294.665100 385.417480,290.997314 388.910126,287.770142 
	C386.784149,286.099182 383.909760,284.035217 381.280151,281.696075 
	C379.826050,280.402588 378.782043,278.648071 377.072510,277.691162 
M123.326431,399.880920 
	C120.393829,399.924103 117.115547,399.152283 114.614563,400.213043 
	C111.357193,401.594666 111.001274,407.525146 113.287506,410.606934 
	C115.307526,413.329865 120.579132,413.913177 123.535133,411.740814 
	C126.706451,409.410187 126.895218,404.211060 123.326431,399.880920 
z"/>
<path fill="#70D6F9" opacity="1.000000" stroke="none" 
	d="
M317.545898,1.000002 
	C318.666229,3.233443 319.620300,5.427616 319.931580,7.709482 
	C320.404968,11.179678 318.793854,14.224601 315.376099,14.627186 
	C312.798065,14.930861 308.536621,14.168911 307.650635,12.492958 
	C306.341736,10.016930 307.307220,6.306001 307.449646,3.127447 
	C307.473297,2.599756 308.236938,2.105225 308.329315,1.297686 
	C311.030609,1.000000 314.061188,1.000000 317.545898,1.000002 
z"/>
<path fill="#528FDA" opacity="1.000000" stroke="none" 
	d="
M348.320068,424.778503 
	C363.690491,428.423584 366.869080,431.980103 368.292664,446.951080 
	C368.797119,452.256073 369.213135,457.570251 369.603119,462.885132 
	C370.564270,475.983673 371.486969,489.084991 372.455475,502.608459 
	C360.242584,502.608459 348.537872,502.608459 336.291016,502.608459 
	C336.291016,494.893372 336.291046,487.271393 336.291016,479.649445 
	C336.290985,473.484314 336.269623,467.319092 336.298706,461.154083 
	C336.316589,457.359589 336.435120,453.064240 331.212097,453.224518 
	C326.136169,453.380280 326.288452,457.688477 326.292145,461.457245 
	C326.303802,473.287628 326.296356,485.117981 326.296295,496.948364 
	C326.296295,498.758850 326.296295,500.569305 326.296295,502.689819 
	C280.067383,502.689819 234.175674,502.689819 187.703674,502.689819 
	C187.703674,491.969391 187.704361,481.364624 187.703293,470.759857 
	C187.702911,466.927490 187.736832,463.094604 187.684082,459.262909 
	C187.637497,455.880524 186.350540,453.135773 182.592285,453.163239 
	C178.811600,453.190826 177.691223,455.909424 177.700119,459.346405 
	C177.734192,472.509674 177.710510,485.673126 177.708450,498.836487 
	C177.708267,499.982208 177.708435,501.127960 177.708435,502.631348 
	C165.671921,502.631348 153.983109,502.631348 141.617828,502.631348 
	C142.171539,494.135468 142.651794,485.883545 143.260483,477.641113 
	C144.106812,466.180267 145.066772,454.727936 145.945129,443.269409 
	C146.611938,434.570557 151.277725,428.474548 159.642670,426.272308 
	C173.141617,422.718475 186.714371,419.445007 200.548843,415.979767 
	C211.549057,440.221405 229.780975,454.843048 256.928619,454.864807 
	C283.912567,454.886475 302.092590,440.479889 313.449005,415.956055 
	C324.808136,418.829742 336.366150,421.753723 348.320068,424.778503 
z"/>
<path fill="#F8D984" opacity="1.000000" stroke="none" 
	d="
M78.336067,247.628860 
	C43.999500,245.200989 18.834692,219.992371 12.524639,190.950073 
	C4.044146,151.918228 29.524420,113.629433 69.864548,105.516693 
	C107.713371,97.904984 146.408463,124.570412 153.095001,162.872147 
	C161.165573,209.101974 125.958450,249.286102 78.336067,247.628860 
M35.044758,153.073898 
	C35.924892,160.628281 39.120159,163.599152 46.768826,163.654099 
	C57.585655,163.731796 68.403450,163.675110 79.220833,163.675217 
	C92.368118,163.675339 105.515816,163.738022 118.662529,163.651138 
	C126.705887,163.597977 130.107147,160.066010 130.198395,151.993011 
	C130.236008,148.665054 130.287140,145.333359 130.177658,142.008453 
	C129.962982,135.487732 126.384254,131.912704 119.778008,131.896591 
	C94.981392,131.836136 70.184418,131.833008 45.387840,131.902679 
	C38.992077,131.920639 35.278477,135.733109 35.066376,142.180573 
	C34.956997,145.505463 35.044174,148.836792 35.044758,153.073898 
M69.721672,217.143250 
	C70.581116,214.869965 72.121506,212.614792 72.182556,210.320251 
	C72.452362,200.181320 72.439751,190.028244 72.241623,179.885910 
	C72.120895,173.705673 68.305656,170.175018 62.042107,170.025299 
	C56.888672,169.902100 51.727730,169.908218 46.574043,170.027130 
	C40.239803,170.173294 36.268078,173.964355 36.159889,180.304962 
	C35.989651,190.282120 35.971508,200.267288 36.172237,210.243362 
	C36.295868,216.387634 40.109779,219.994385 46.332584,220.189850 
	C51.649792,220.356873 56.993248,220.474930 62.290955,220.113831 
	C64.619522,219.955124 66.863350,218.553085 69.721672,217.143250 
M95.555069,190.410110 
	C93.222778,190.410294 90.889420,190.455688 88.558456,190.400223 
	C84.928757,190.313858 81.421501,190.954178 81.316040,195.322952 
	C81.210457,199.696625 84.590660,200.505478 88.294357,200.486252 
	C98.289650,200.434357 108.285416,200.450958 118.280914,200.475555 
	C121.918930,200.484512 125.308899,199.886383 125.207779,195.328629 
	C125.106590,190.767212 121.586960,190.396637 118.029091,190.406296 
	C110.865662,190.425751 103.702141,190.410873 95.555069,190.410110 
M108.474785,173.644165 
	C101.311981,173.647614 94.149109,173.670212 86.986397,173.646072 
	C83.625908,173.634750 80.971970,175.309860 81.453041,178.508057 
	C81.741043,180.422729 84.589401,183.343735 86.381149,183.414139 
	C97.689781,183.858353 109.033546,183.848419 120.341713,183.392746 
	C122.052711,183.323792 124.660011,180.346451 125.045387,178.363205 
	C125.639267,175.306946 123.064941,173.715668 119.956161,173.674164 
	C116.458641,173.627472 112.960182,173.651154 108.474785,173.644165 
M109.486359,217.266861 
	C112.817650,217.263184 116.149048,217.241821 119.480209,217.260864 
	C122.754883,217.279572 125.145233,216.026764 125.230263,212.486557 
	C125.322136,208.661880 122.762840,207.271637 119.338203,207.257584 
	C108.678177,207.213837 98.017853,207.233002 87.357658,207.242691 
	C83.897972,207.245819 81.259018,208.722000 81.304192,212.378387 
	C81.349693,216.061356 84.024315,217.317169 87.504234,217.283737 
	C94.499344,217.216522 101.495560,217.265701 109.486359,217.266861 
z"/>
<path fill="#F7C0A7" opacity="1.000000" stroke="none" 
	d="
M264.747986,260.792786 
	C265.716370,259.628723 266.441589,258.717255 267.235779,257.719116 
	C279.457001,268.041656 293.607269,271.755005 309.066956,272.979279 
	C309.066956,286.234772 309.253815,299.367340 308.997314,312.491211 
	C308.841888,320.443115 309.087219,328.640289 307.269104,336.279022 
	C301.030243,362.491394 277.475128,378.471436 249.978180,376.045013 
	C225.513123,373.886169 205.033875,352.928833 203.475189,327.075867 
	C202.526367,311.338409 203.300156,295.497070 203.300156,279.359375 
	C226.554108,282.293335 247.580734,278.371948 264.747986,260.792786 
M265.287292,342.100739 
	C256.291779,346.038300 249.647415,344.629913 243.005051,337.117371 
	C240.839905,334.668610 238.159531,333.170074 235.790298,335.493958 
	C234.408539,336.849243 233.658447,340.802155 234.624359,342.271332 
	C239.797028,350.139099 247.412598,354.158569 256.944855,354.168732 
	C266.467194,354.178925 273.960632,350.136688 279.470551,342.465637 
	C281.276001,339.952026 281.137817,336.886078 278.372833,335.587677 
	C276.650940,334.779144 273.677795,335.432678 271.812714,336.440979 
	C269.564972,337.656158 267.896484,339.942810 265.287292,342.100739 
M228.100479,301.576721 
	C224.913269,307.505341 226.781372,313.029358 232.371048,314.006287 
	C236.031876,314.646088 239.037277,313.385254 240.676651,310.021637 
	C242.277039,306.738037 241.845932,303.441772 238.995712,300.968109 
	C235.635376,298.051697 232.081253,298.232147 228.100479,301.576721 
M272.035675,309.451752 
	C275.761780,314.889526 281.665344,315.766296 285.081482,311.310272 
	C287.351898,308.348724 287.494965,305.151398 285.266876,302.113495 
	C283.050018,299.090973 279.902283,298.091675 276.460999,299.467072 
	C272.355530,301.107941 270.847168,304.374725 272.035675,309.451752 
z"/>
<path fill="#F9DA84" opacity="1.000000" stroke="none" 
	d="
M193.220032,68.265305 
	C208.824463,40.063377 236.239334,26.062519 267.563293,30.046564 
	C295.248291,33.567776 319.190796,55.276627 326.506317,83.490562 
	C336.914307,123.631630 310.424072,164.234146 268.942902,171.719864 
	C228.928329,178.940948 189.979324,149.379196 185.779526,108.767532 
	C184.315506,94.610519 186.793045,81.293297 193.220032,68.265305 
M206.485855,98.748894 
	C206.485840,100.247070 206.483749,101.745255 206.486176,103.243431 
	C206.500015,111.786697 206.643616,111.969276 215.040451,114.147064 
	C217.742432,114.847839 219.130981,119.665337 217.309372,122.018913 
	C213.794571,126.560165 213.916916,129.153152 217.899216,133.309021 
	C219.510971,134.991058 221.181137,136.617233 222.829285,138.264252 
	C229.252411,144.682983 230.856522,144.786987 237.873840,139.242126 
	C241.487549,140.264771 244.267792,141.467194 244.409988,146.350494 
	C244.460907,148.099335 248.272552,150.638077 250.738220,151.205002 
	C254.376328,152.041519 258.347839,151.521027 262.173584,151.426361 
	C267.678467,151.290115 269.366455,149.652771 270.129364,144.010880 
	C270.610931,140.449829 275.166382,138.488983 277.984100,140.629898 
	C282.610413,144.144989 285.180389,144.040802 289.306122,140.105988 
	C290.991882,138.498260 292.614899,136.824631 294.261993,135.176514 
	C300.721802,128.712677 300.833679,127.027039 295.248260,120.166512 
	C296.426849,116.755104 297.188507,113.303009 302.346924,113.683731 
	C303.819489,113.792412 306.720215,110.975960 306.890839,109.290733 
	C307.454987,103.718544 307.437347,98.009956 306.823822,92.444008 
	C306.643494,90.808159 303.706543,88.191132 302.095154,88.236450 
	C297.043976,88.378479 296.176941,85.191032 295.269012,81.630234 
	C300.754730,75.307228 300.681061,73.239563 294.806183,67.346046 
	C293.513550,66.049332 292.223114,64.750443 290.927490,63.456745 
	C284.736786,57.275379 282.815582,57.181099 276.278412,62.775166 
	C272.898895,61.619331 269.694427,60.870533 269.634125,55.798107 
	C269.612885,54.011608 265.876434,51.228539 263.464996,50.742435 
	C259.307465,49.904350 254.739105,49.906544 250.578979,50.737213 
	C248.160156,51.220184 244.411392,53.967628 244.375931,55.757851 
	C244.276764,60.763012 241.202759,61.649933 237.725433,62.737816 
	C231.181412,57.240631 229.214050,57.337650 223.084885,63.461441 
	C222.142883,64.402626 221.204941,65.347862 220.262711,66.288818 
	C213.197281,73.344719 213.106476,74.273132 219.095993,82.568840 
	C217.782394,84.228691 216.669647,87.129669 214.857880,87.665024 
	C207.054779,89.970726 206.632553,90.130562 206.485855,98.748894 
z"/>
<path fill="#F9DA84" opacity="1.000000" stroke="none" 
	d="
M490.450256,217.433334 
	C472.394012,242.438232 443.618530,253.537918 414.822571,246.804321 
	C386.454285,240.170731 364.995209,216.680634 360.278137,187.097473 
	C354.072021,148.175873 383.644562,109.818398 422.904236,105.867386 
	C467.624847,101.366798 504.507263,135.566757 502.916748,180.219681 
	C502.438141,193.656693 498.156250,205.966782 490.450256,217.433334 
M410.697571,225.034561 
	C412.442688,226.293045 414.150787,228.575134 415.939087,228.639816 
	C425.749847,228.994644 435.581177,228.879745 445.403473,228.762802 
	C448.681000,228.723785 451.278473,226.671951 450.567505,223.505386 
	C450.149719,221.644684 447.349335,219.575394 445.244873,219.017609 
	C442.351044,218.250610 439.101501,218.825577 436.087769,218.825577 
	C436.087769,215.909592 436.087769,213.688202 436.087769,211.187637 
	C444.958313,211.187637 453.429321,211.207855 461.900208,211.182709 
	C473.530884,211.148193 478.455475,206.469849 478.148163,194.855042 
	C477.931458,186.665115 480.102936,178.170090 475.760193,170.362686 
	C480.003906,162.366043 477.621796,153.712387 478.226868,145.355637 
	C478.298706,144.363342 478.241547,143.357147 478.184692,142.360794 
	C477.766388,135.029190 472.963593,129.434601 465.647980,129.340805 
	C442.841187,129.048386 420.026947,129.078308 397.218842,129.305969 
	C390.257507,129.375458 384.854858,134.216599 384.618561,141.120300 
	C384.298676,150.466248 382.279480,160.063202 386.487885,169.162674 
	C386.734100,169.695129 386.909668,170.540237 386.660217,170.980316 
	C382.316986,178.643021 384.554169,186.981308 384.324036,195.004639 
	C384.004333,206.150620 389.237366,211.132965 400.373383,211.180923 
	C408.641785,211.216537 416.910461,211.187927 425.317902,211.187927 
	C425.317902,214.000198 425.317902,216.217255 425.317902,218.815887 
	C422.173737,218.815887 419.373108,218.864334 416.574768,218.804062 
	C412.778473,218.722290 410.539581,220.283783 410.697571,225.034561 
z"/>
<path fill="#404243" opacity="1.000000" stroke="none" 
	d="
M200.790741,218.791931 
	C211.646179,208.420166 224.324921,203.319702 238.928680,203.032394 
	C245.258820,202.907852 251.619232,202.684875 257.920807,203.136154 
	C266.863678,203.776596 274.171234,207.836136 279.237488,215.381943 
	C281.729095,219.093048 284.514740,219.715576 288.593628,217.819885 
	C307.305939,209.123138 326.599670,219.057175 329.125305,239.637619 
	C330.569489,251.405869 329.386719,263.496490 329.386719,275.999023 
	C326.590149,275.508301 323.617310,275.711151 321.627502,274.410339 
	C320.009521,273.352600 319.973022,270.124115 318.509033,268.521729 
	C316.529602,266.355225 313.953033,263.423950 311.462921,263.249969 
	C296.774567,262.223694 283.347504,258.477539 271.903625,248.673660 
	C268.276642,245.566452 264.438049,246.436462 260.540680,250.814758 
	C254.216019,257.919922 246.861465,263.465973 237.953827,266.861237 
	C227.538071,270.831360 216.761322,270.851349 205.932404,269.418823 
	C201.450119,268.825867 197.733719,268.768585 194.168121,272.631378 
	C192.234070,274.726624 188.281097,274.958221 184.581406,276.262177 
	C183.010254,254.609772 184.625824,234.858917 200.790741,218.791931 
z"/>
<path fill="#F6BFA6" opacity="1.000000" stroke="none" 
	d="
M289.583221,406.560699 
	C271.387054,429.069946 239.868393,428.598114 224.228271,406.048370 
	C226.941116,402.699860 230.177231,399.700012 232.127945,396.018951 
	C234.092819,392.311127 234.780472,387.926422 236.174698,383.356750 
	C249.826950,387.651855 264.158081,387.464020 279.027374,382.352905 
	C277.629547,393.054474 283.924225,399.554138 289.583221,406.560699 
z"/>
<path fill="#64A7E8" opacity="1.000000" stroke="none" 
	d="
M240.775391,430.497742 
	C264.586029,437.242401 283.354706,430.747986 299.418304,410.233215 
	C300.717590,410.874664 302.102142,411.558197 303.422974,412.210297 
	C297.898468,430.667084 278.199524,444.783661 258.026031,445.064758 
	C236.718781,445.361633 216.962479,431.873260 210.522369,412.412720 
	C211.726578,411.714203 212.984619,410.984436 214.548950,410.077026 
	C221.109940,419.518158 229.518906,426.549164 240.775391,430.497742 
z"/>
<path fill="#F3BCA4" opacity="1.000000" stroke="none" 
	d="
M333.979034,293.200623 
	C341.066223,306.993835 334.388672,320.365662 319.384857,322.493042 
	C319.384857,309.948334 319.384857,297.444702 319.384857,284.673645 
	C325.678284,284.855530 330.230835,287.968994 333.979034,293.200623 
z"/>
<path fill="#F6BEA6" opacity="1.000000" stroke="none" 
	d="
M175.226624,303.917542 
	C176.581543,292.014740 182.734497,285.449097 192.922729,284.819092 
	C192.922729,297.244781 192.922729,309.658783 192.922729,322.073914 
	C183.396896,322.054260 177.152710,315.758942 175.226624,303.917542 
z"/>
<path fill="#70D6F9" opacity="1.000000" stroke="none" 
	d="
M133.996399,365.003601 
	C133.183258,364.048798 132.329529,363.017883 131.571884,363.084229 
	C127.228729,363.464447 125.131836,360.651001 125.238617,357.291260 
	C125.347954,353.851074 127.830826,351.334869 132.007629,351.979767 
	C132.471573,352.051392 132.971252,351.891693 133.825348,351.799042 
	C133.479782,347.592804 134.411255,343.237885 139.294983,343.282990 
	C143.817276,343.324707 145.824127,347.001251 144.891434,351.739227 
	C148.861450,352.324707 153.084610,351.588104 153.107010,357.468018 
	C153.129456,363.360504 148.932327,362.673096 145.274673,363.222748 
	C144.687851,367.061188 145.183228,371.520996 139.048157,371.087433 
	C135.137100,370.811005 133.736465,369.058868 133.996399,365.003601 
z"/>
<path fill="#FC657E" opacity="1.000000" stroke="none" 
	d="
M374.788879,32.327602 
	C377.303497,33.500351 379.537109,34.425896 382.748993,35.756802 
	C373.249573,38.646698 366.317688,43.425732 364.061035,53.407299 
	C361.354187,43.857010 355.194794,38.486515 345.834625,36.136688 
	C349.926514,33.726658 353.866669,32.168213 356.767731,29.485970 
	C359.753265,26.725647 361.725555,22.869448 363.682434,20.134056 
	C366.958618,23.749464 370.733276,27.914932 374.788879,32.327602 
z"/>
<path fill="#F5C84C" opacity="1.000000" stroke="none" 
	d="
M377.312836,277.396301 
	C378.782043,278.648071 379.826050,280.402588 381.280151,281.696075 
	C383.909760,284.035217 386.784149,286.099182 388.910126,287.770142 
	C385.417480,290.997314 381.447998,294.665100 378.068451,297.787750 
	C375.008331,294.748596 371.418060,291.182861 368.448700,288.233826 
	C370.946045,285.180786 374.009277,281.435974 377.312836,277.396301 
z"/>
<path fill="#87D047" opacity="1.000000" stroke="none" 
	d="
M123.636093,400.156036 
	C126.895218,404.211060 126.706451,409.410187 123.535133,411.740814 
	C120.579132,413.913177 115.307526,413.329865 113.287506,410.606934 
	C111.001274,407.525146 111.357193,401.594666 114.614563,400.213043 
	C117.115547,399.152283 120.393829,399.924103 123.636093,400.156036 
z"/>
<path fill="#070504" opacity="1.000000" stroke="none" 
	d="
M35.043648,152.619568 
	C35.044174,148.836792 34.956997,145.505463 35.066376,142.180573 
	C35.278477,135.733109 38.992077,131.920639 45.387840,131.902679 
	C70.184418,131.833008 94.981392,131.836136 119.778008,131.896591 
	C126.384254,131.912704 129.962982,135.487732 130.177658,142.008453 
	C130.287140,145.333359 130.236008,148.665054 130.198395,151.993011 
	C130.107147,160.066010 126.705887,163.597977 118.662529,163.651138 
	C105.515816,163.738022 92.368118,163.675339 79.220833,163.675217 
	C68.403450,163.675110 57.585655,163.731796 46.768826,163.654099 
	C39.120159,163.599152 35.924892,160.628281 35.043648,152.619568 
M82.500023,141.874176 
	C70.087364,141.874176 57.674706,141.874176 45.424316,141.874176 
	C45.424316,146.214798 45.424316,149.779297 45.424316,153.429016 
	C70.401451,153.429016 94.999283,153.429016 119.819824,153.429016 
	C119.819824,149.495163 119.819824,145.811523 119.819824,141.874176 
	C107.459862,141.874176 95.479942,141.874176 82.500023,141.874176 
z"/>
<path fill="#040505" opacity="1.000000" stroke="none" 
	d="
M69.433670,217.429413 
	C66.863350,218.553085 64.619522,219.955124 62.290955,220.113831 
	C56.993248,220.474930 51.649792,220.356873 46.332584,220.189850 
	C40.109779,219.994385 36.295868,216.387634 36.172237,210.243362 
	C35.971508,200.267288 35.989651,190.282120 36.159889,180.304962 
	C36.268078,173.964355 40.239803,170.173294 46.574043,170.027130 
	C51.727730,169.908218 56.888672,169.902100 62.042107,170.025299 
	C68.305656,170.175018 72.120895,173.705673 72.241623,179.885910 
	C72.439751,190.028244 72.452362,200.181320 72.182556,210.320251 
	C72.121506,212.614792 70.581116,214.869965 69.433670,217.429413 
M46.205502,209.211807 
	C51.462429,209.678696 56.719353,210.145584 62.048576,210.618896 
	C62.048576,199.832260 62.048576,190.111282 62.048576,180.240082 
	C56.711979,180.240082 51.641788,180.240082 46.126247,180.240082 
	C46.126247,189.728821 46.126247,198.990051 46.205502,209.211807 
z"/>
<path fill="#0B0A06" opacity="1.000000" stroke="none" 
	d="
M96.046860,190.410126 
	C103.702141,190.410873 110.865662,190.425751 118.029091,190.406296 
	C121.586960,190.396637 125.106590,190.767212 125.207779,195.328629 
	C125.308899,199.886383 121.918930,200.484512 118.280914,200.475555 
	C108.285416,200.450958 98.289650,200.434357 88.294357,200.486252 
	C84.590660,200.505478 81.210457,199.696625 81.316040,195.322952 
	C81.421501,190.954178 84.928757,190.313858 88.558456,190.400223 
	C90.889420,190.455688 93.222778,190.410294 96.046860,190.410126 
z"/>
<path fill="#0A0905" opacity="1.000000" stroke="none" 
	d="
M108.968460,173.644196 
	C112.960182,173.651154 116.458641,173.627472 119.956161,173.674164 
	C123.064941,173.715668 125.639267,175.306946 125.045387,178.363205 
	C124.660011,180.346451 122.052711,183.323792 120.341713,183.392746 
	C109.033546,183.848419 97.689781,183.858353 86.381149,183.414139 
	C84.589401,183.343735 81.741043,180.422729 81.453041,178.508057 
	C80.971970,175.309860 83.625908,173.634750 86.986397,173.646072 
	C94.149109,173.670212 101.311981,173.647614 108.968460,173.644196 
z"/>
<path fill="#090805" opacity="1.000000" stroke="none" 
	d="
M108.988846,217.266846 
	C101.495560,217.265701 94.499344,217.216522 87.504234,217.283737 
	C84.024315,217.317169 81.349693,216.061356 81.304192,212.378387 
	C81.259018,208.722000 83.897972,207.245819 87.357658,207.242691 
	C98.017853,207.233002 108.678177,207.213837 119.338203,207.257584 
	C122.762840,207.271637 125.322136,208.661880 125.230263,212.486557 
	C125.145233,216.026764 122.754883,217.279572 119.480209,217.260864 
	C116.149048,217.241821 112.817650,217.263184 108.988846,217.266846 
z"/>
<path fill="#060504" opacity="1.000000" stroke="none" 
	d="
M265.632263,341.933167 
	C267.896484,339.942810 269.564972,337.656158 271.812714,336.440979 
	C273.677795,335.432678 276.650940,334.779144 278.372833,335.587677 
	C281.137817,336.886078 281.276001,339.952026 279.470551,342.465637 
	C273.960632,350.136688 266.467194,354.178925 256.944855,354.168732 
	C247.412598,354.158569 239.797028,350.139099 234.624359,342.271332 
	C233.658447,340.802155 234.408539,336.849243 235.790298,335.493958 
	C238.159531,333.170074 240.839905,334.668610 243.005051,337.117371 
	C249.647415,344.629913 256.291779,346.038300 265.632263,341.933167 
z"/>
<path fill="#090706" opacity="1.000000" stroke="none" 
	d="
M228.374573,301.304657 
	C232.081253,298.232147 235.635376,298.051697 238.995712,300.968109 
	C241.845932,303.441772 242.277039,306.738037 240.676651,310.021637 
	C239.037277,313.385254 236.031876,314.646088 232.371048,314.006287 
	C226.781372,313.029358 224.913269,307.505341 228.374573,301.304657 
z"/>
<path fill="#090706" opacity="1.000000" stroke="none" 
	d="
M271.947144,309.089935 
	C270.847168,304.374725 272.355530,301.107941 276.460999,299.467072 
	C279.902283,298.091675 283.050018,299.090973 285.266876,302.113495 
	C287.494965,305.151398 287.351898,308.348724 285.081482,311.310272 
	C281.665344,315.766296 275.761780,314.889526 271.947144,309.089935 
z"/>
<path fill="#060403" opacity="1.000000" stroke="none" 
	d="
M206.486237,98.303215 
	C206.632553,90.130562 207.054779,89.970726 214.857880,87.665024 
	C216.669647,87.129669 217.782394,84.228691 219.095993,82.568840 
	C213.106476,74.273132 213.197281,73.344719 220.262711,66.288818 
	C221.204941,65.347862 222.142883,64.402626 223.084885,63.461441 
	C229.214050,57.337650 231.181412,57.240631 237.725525,62.737907 
	C241.202759,61.649933 244.276764,60.763012 244.375931,55.757851 
	C244.411392,53.967628 248.160156,51.220184 250.578979,50.737213 
	C254.739105,49.906544 259.307465,49.904350 263.464996,50.742435 
	C265.876434,51.228539 269.612885,54.011608 269.634125,55.798107 
	C269.694427,60.870533 272.898895,61.619331 276.278412,62.775166 
	C282.815582,57.181099 284.736786,57.275379 290.927490,63.456745 
	C292.223114,64.750443 293.513550,66.049332 294.806183,67.346046 
	C300.681061,73.239563 300.754730,75.307228 295.269012,81.630234 
	C296.176941,85.191032 297.043976,88.378479 302.095154,88.236450 
	C303.706543,88.191132 306.643494,90.808159 306.823822,92.444008 
	C307.437347,98.009956 307.454987,103.718544 306.890839,109.290733 
	C306.720215,110.975960 303.819489,113.792412 302.346924,113.683731 
	C297.188507,113.303009 296.426849,116.755104 295.248260,120.166512 
	C300.833679,127.027039 300.721802,128.712677 294.261993,135.176514 
	C292.614899,136.824631 290.991882,138.498260 289.306122,140.105988 
	C285.180389,144.040802 282.610413,144.144989 277.984100,140.629898 
	C275.166382,138.488983 270.610931,140.449829 270.129364,144.010880 
	C269.366455,149.652771 267.678467,151.290115 262.173584,151.426361 
	C258.347839,151.521027 254.376328,152.041519 250.738220,151.205002 
	C248.272552,150.638077 244.460907,148.099335 244.409988,146.350494 
	C244.267792,141.467194 241.487549,140.264771 237.871216,139.244415 
	C230.856522,144.786987 229.252411,144.682983 222.829285,138.264252 
	C221.181137,136.617233 219.510971,134.991058 217.899216,133.309021 
	C213.916916,129.153152 213.794571,126.560165 217.309372,122.018913 
	C219.130981,119.665337 217.742432,114.847839 215.040451,114.147064 
	C206.643616,111.969276 206.500015,111.786697 206.486176,103.243431 
	C206.483749,101.745255 206.485840,100.247070 206.486237,98.303215 
M237.402573,128.173187 
	C243.696533,131.797668 253.683426,130.517914 254.340942,141.219177 
	C256.296631,141.219177 257.914856,141.219177 259.479889,141.219177 
	C262.059967,130.857986 275.151520,125.591904 283.478760,131.419189 
	C284.929291,130.192078 286.383698,128.961700 287.747711,127.807785 
	C281.494141,119.239319 286.902435,106.246300 297.204407,103.436340 
	C297.204407,101.690910 297.204407,99.945488 297.204407,98.263809 
	C287.094543,96.409897 281.819916,83.200462 287.439453,74.165245 
	C286.251862,72.858841 285.037567,71.523048 283.883667,70.253670 
	C275.090820,76.444336 261.747406,71.011246 259.633850,60.650642 
	C257.902924,60.650642 256.126801,60.650642 254.394699,60.650642 
	C252.171494,71.010948 238.867615,76.441818 230.476959,70.500206 
	C229.045090,71.735229 227.600433,72.981270 226.242294,74.152695 
	C232.504440,82.743187 227.146164,95.675095 216.785751,98.542465 
	C216.785751,100.291519 216.785751,102.040565 216.785751,103.731232 
	C226.879257,105.489685 232.186310,118.750175 226.577225,127.763763 
	C227.757812,129.091751 228.957886,130.441650 229.856384,131.452332 
	C232.503098,130.172882 234.564926,129.176163 237.402573,128.173187 
z"/>
<path fill="#050505" opacity="1.000000" stroke="none" 
	d="
M410.590454,224.669403 
	C410.539581,220.283783 412.778473,218.722290 416.574768,218.804062 
	C419.373108,218.864334 422.173737,218.815887 425.317902,218.815887 
	C425.317902,216.217255 425.317902,214.000198 425.317902,211.187927 
	C416.910461,211.187927 408.641785,211.216537 400.373383,211.180923 
	C389.237366,211.132965 384.004333,206.150620 384.324036,195.004639 
	C384.554169,186.981308 382.316986,178.643021 386.660217,170.980316 
	C386.909668,170.540237 386.734100,169.695129 386.487885,169.162674 
	C382.279480,160.063202 384.298676,150.466248 384.618561,141.120300 
	C384.854858,134.216599 390.257507,129.375458 397.218842,129.305969 
	C420.026947,129.078308 442.841187,129.048386 465.647980,129.340805 
	C472.963593,129.434601 477.766388,135.029190 478.184692,142.360794 
	C478.241547,143.357147 478.298706,144.363342 478.226868,145.355637 
	C477.621796,153.712387 480.003906,162.366043 475.760193,170.362686 
	C480.102936,178.170090 477.931458,186.665115 478.148163,194.855042 
	C478.455475,206.469849 473.530884,211.148193 461.900208,211.182709 
	C453.429321,211.207855 444.958313,211.187637 436.087769,211.187637 
	C436.087769,213.688202 436.087769,215.909592 436.087769,218.825577 
	C439.101501,218.825577 442.351044,218.250610 445.244873,219.017609 
	C447.349335,219.575394 450.149719,221.644684 450.567505,223.505386 
	C451.278473,226.671951 448.681000,228.723785 445.403473,228.762802 
	C435.581177,228.879745 425.749847,228.994644 415.939087,228.639816 
	C414.150787,228.575134 412.442688,226.293045 410.590454,224.669403 
M430.499969,165.177689 
	C441.482513,165.144974 452.465424,165.051590 463.447388,165.115692 
	C466.834564,165.135468 468.308563,163.763840 468.248566,160.374161 
	C468.151398,154.884247 468.170990,149.390747 468.239929,143.899994 
	C468.283142,140.456467 466.515747,139.168777 463.286896,139.172089 
	C441.985992,139.193970 420.685028,139.204971 399.384186,139.161423 
	C395.813965,139.154129 394.195862,140.777313 394.225739,144.300156 
	C394.269531,149.458588 394.313599,154.619308 394.207031,159.775940 
	C394.129395,163.533310 395.668549,165.189240 399.547852,165.145599 
	C409.530487,165.033310 419.515747,165.151611 430.499969,165.177689 
M394.238800,180.077423 
	C394.237335,185.403946 394.247009,190.730515 394.230133,196.056992 
	C394.220337,199.157074 395.269623,201.182968 398.812317,201.178436 
	C420.451172,201.150803 442.090149,201.150925 463.729004,201.182404 
	C466.885559,201.186996 468.261658,199.719711 468.232727,196.616226 
	C468.181488,191.123779 468.118774,185.627823 468.260681,180.138504 
	C468.350067,176.681351 466.667053,175.242676 463.468964,175.240250 
	C441.997314,175.224014 420.524689,175.150848 399.056091,175.408737 
	C397.445679,175.428085 395.864441,177.876129 394.238800,180.077423 
z"/>
<path fill="#F3627A" opacity="1.000000" stroke="none" 
	d="
M83.000031,141.874176 
	C95.479942,141.874176 107.459862,141.874176 119.819824,141.874176 
	C119.819824,145.811523 119.819824,149.495163 119.819824,153.429016 
	C94.999283,153.429016 70.401451,153.429016 45.424316,153.429016 
	C45.424316,149.779297 45.424316,146.214798 45.424316,141.874176 
	C57.674706,141.874176 70.087364,141.874176 83.000031,141.874176 
z"/>
<path fill="#6FD4F6" opacity="1.000000" stroke="none" 
	d="
M46.165874,208.731537 
	C46.126247,198.990051 46.126247,189.728821 46.126247,180.240082 
	C51.641788,180.240082 56.711979,180.240082 62.048576,180.240082 
	C62.048576,190.111282 62.048576,199.832260 62.048576,210.618896 
	C56.719353,210.145584 51.462429,209.678696 46.165874,208.731537 
z"/>
<path fill="#F4627A" opacity="1.000000" stroke="none" 
	d="
M237.014664,128.176315 
	C234.564926,129.176163 232.503098,130.172882 229.856384,131.452332 
	C228.957886,130.441650 227.757812,129.091751 226.577225,127.763763 
	C232.186310,118.750175 226.879257,105.489685 216.785751,103.731232 
	C216.785751,102.040565 216.785751,100.291519 216.791687,98.540390 
	C227.146164,95.675095 232.504440,82.743187 226.242294,74.152695 
	C227.600433,72.981270 229.045090,71.735229 230.476959,70.500206 
	C238.867615,76.441818 252.171494,71.010948 254.394699,60.650642 
	C256.126801,60.650642 257.902924,60.650642 259.633850,60.650642 
	C261.747406,71.011246 275.090820,76.444336 283.883667,70.253670 
	C285.037567,71.523048 286.251862,72.858841 287.439453,74.165245 
	C281.819916,83.200462 287.094543,96.409897 297.204407,98.263809 
	C297.204407,99.945488 297.204407,101.690910 297.207489,103.438660 
	C286.902435,106.246300 281.494141,119.239319 287.747711,127.807785 
	C286.383698,128.961700 284.929291,130.192078 283.478760,131.419189 
	C275.151520,125.591904 262.059967,130.857986 259.479889,141.219177 
	C257.914856,141.219177 256.296631,141.219177 254.340942,141.219177 
	C253.683426,130.517914 243.696533,131.797668 237.014664,128.176315 
M233.876877,88.571266 
	C233.234375,90.100342 232.466980,91.589951 231.969437,93.164825 
	C228.498550,104.151283 232.674774,116.147453 242.179672,122.657509 
	C251.635696,129.134079 264.351196,128.655792 273.371368,121.484245 
	C282.357178,114.340019 285.725922,102.001778 281.357056,91.337624 
	C277.513763,81.956528 270.451630,76.256737 260.374390,75.045517 
	C249.039612,73.683144 240.286789,78.236816 233.876877,88.571266 
z"/>
<path fill="#508CD5" opacity="1.000000" stroke="none" 
	d="
M429.999939,165.177734 
	C419.515747,165.151611 409.530487,165.033310 399.547852,165.145599 
	C395.668549,165.189240 394.129395,163.533310 394.207031,159.775940 
	C394.313599,154.619308 394.269531,149.458588 394.225739,144.300156 
	C394.195862,140.777313 395.813965,139.154129 399.384186,139.161423 
	C420.685028,139.204971 441.985992,139.193970 463.286896,139.172089 
	C466.515747,139.168777 468.283142,140.456467 468.239929,143.899994 
	C468.170990,149.390747 468.151398,154.884247 468.248566,160.374161 
	C468.308563,163.763840 466.834564,165.135468 463.447388,165.115692 
	C452.465424,165.051590 441.482513,165.144974 429.999939,165.177734 
M403.162933,155.482315 
	C404.664795,156.042694 406.159302,157.064148 407.669708,157.088272 
	C417.133240,157.239365 426.600372,157.161392 436.066284,157.174088 
	C439.365417,157.178513 441.760834,155.728195 441.794037,152.339081 
	C441.829956,148.669525 439.254547,147.192368 435.801270,147.186813 
	C426.501373,147.171860 417.199707,147.075714 407.902222,147.227112 
	C402.974823,147.307343 401.524261,149.639496 403.162933,155.482315 
M449.077484,152.477463 
	C450.862152,156.770706 454.374756,158.552704 457.834534,156.658920 
	C460.462524,155.220428 461.657593,152.858444 460.045929,150.020081 
	C458.147614,146.676804 455.010437,146.399750 451.931274,147.949524 
	C450.676178,148.581223 450.024567,150.411987 449.077484,152.477463 
z"/>
<path fill="#508CD5" opacity="1.000000" stroke="none" 
	d="
M394.254211,179.636292 
	C395.864441,177.876129 397.445679,175.428085 399.056091,175.408737 
	C420.524689,175.150848 441.997314,175.224014 463.468964,175.240250 
	C466.667053,175.242676 468.350067,176.681351 468.260681,180.138504 
	C468.118774,185.627823 468.181488,191.123779 468.232727,196.616226 
	C468.261658,199.719711 466.885559,201.186996 463.729004,201.182404 
	C442.090149,201.150925 420.451172,201.150803 398.812317,201.178436 
	C395.269623,201.182968 394.220337,199.157074 394.230133,196.056992 
	C394.247009,190.730515 394.237335,185.403946 394.254211,179.636292 
M407.168457,183.196457 
	C403.669312,183.654770 401.520905,185.495163 402.118195,189.165359 
	C402.687622,192.664352 405.492523,193.211853 408.560699,193.194626 
	C417.356598,193.145203 426.153381,193.127121 434.948883,193.203934 
	C438.455048,193.234543 441.656799,192.494766 441.775482,188.463272 
	C441.901794,184.173309 438.692749,183.137299 434.937866,183.160049 
	C425.976044,183.214355 417.013702,183.179947 407.168457,183.196457 
M460.600891,189.246506 
	C460.940918,185.587112 459.054413,183.175095 455.639648,183.397964 
	C453.458405,183.540344 450.881561,185.219376 449.522675,187.002502 
	C448.889557,187.833252 450.205719,191.435120 451.551819,192.225922 
	C454.520599,193.969986 457.901367,193.996552 460.116486,190.407593 
	C460.202118,190.268814 460.248413,190.105774 460.600891,189.246506 
z"/>
<path fill="#070403" opacity="1.000000" stroke="none" 
	d="
M234.038483,88.233299 
	C240.286789,78.236816 249.039612,73.683144 260.374390,75.045517 
	C270.451630,76.256737 277.513763,81.956528 281.357056,91.337624 
	C285.725922,102.001778 282.357178,114.340019 273.371368,121.484245 
	C264.351196,128.655792 251.635696,129.134079 242.179672,122.657509 
	C232.674774,116.147453 228.498550,104.151283 231.969437,93.164825 
	C232.466980,91.589951 233.234375,90.100342 234.038483,88.233299 
M246.368210,88.792305 
	C238.223373,97.330284 239.190384,109.118622 248.504929,114.839935 
	C255.276321,118.999153 264.125153,117.594429 269.328857,111.534210 
	C274.616211,105.376587 274.483765,96.000191 269.025940,90.089241 
	C263.172943,83.750290 254.719940,83.061279 246.368210,88.792305 
z"/>
<path fill="#030507" opacity="1.000000" stroke="none" 
	d="
M402.934875,155.138092 
	C401.524261,149.639496 402.974823,147.307343 407.902222,147.227112 
	C417.199707,147.075714 426.501373,147.171860 435.801270,147.186813 
	C439.254547,147.192368 441.829956,148.669525 441.794037,152.339081 
	C441.760834,155.728195 439.365417,157.178513 436.066284,157.174088 
	C426.600372,157.161392 417.133240,157.239365 407.669708,157.088272 
	C406.159302,157.064148 404.664795,156.042694 402.934875,155.138092 
z"/>
<path fill="#04080C" opacity="1.000000" stroke="none" 
	d="
M449.087952,152.087341 
	C450.024567,150.411987 450.676178,148.581223 451.931274,147.949524 
	C455.010437,146.399750 458.147614,146.676804 460.045929,150.020081 
	C461.657593,152.858444 460.462524,155.220428 457.834534,156.658920 
	C454.374756,158.552704 450.862152,156.770706 449.087952,152.087341 
z"/>
<path fill="#030507" opacity="1.000000" stroke="none" 
	d="
M407.610016,183.188904 
	C417.013702,183.179947 425.976044,183.214355 434.937866,183.160049 
	C438.692749,183.137299 441.901794,184.173309 441.775482,188.463272 
	C441.656799,192.494766 438.455048,193.234543 434.948883,193.203934 
	C426.153381,193.127121 417.356598,193.145203 408.560699,193.194626 
	C405.492523,193.211853 402.687622,192.664352 402.118195,189.165359 
	C401.520905,185.495163 403.669312,183.654770 407.610016,183.188904 
z"/>
<path fill="#04080C" opacity="1.000000" stroke="none" 
	d="
M460.456970,189.600281 
	C460.248413,190.105774 460.202118,190.268814 460.116486,190.407593 
	C457.901367,193.996552 454.520599,193.969986 451.551819,192.225922 
	C450.205719,191.435120 448.889557,187.833252 449.522675,187.002502 
	C450.881561,185.219376 453.458405,183.540344 455.639648,183.397964 
	C459.054413,183.175095 460.940918,185.587112 460.456970,189.600281 
z"/>
<path fill="#FADB85" opacity="1.000000" stroke="none" 
	d="
M246.645508,88.539940 
	C254.719940,83.061279 263.172943,83.750290 269.025940,90.089241 
	C274.483765,96.000191 274.616211,105.376587 269.328857,111.534210 
	C264.125153,117.594429 255.276321,118.999153 248.504929,114.839935 
	C239.190384,109.118622 238.223373,97.330284 246.645508,88.539940 
z"/>
</svg>